# xmcd
#
# Track frame offsets:
#	175
#	16357
#	31545
#	46867
#	65740
#	82372
#	97957
#	112475
#	127332
#	144987
#	167117
#
# Disc length: 2459 seconds
#
# Revision: 0
# Processed by: cddbd v1.5.1PL2 Copyright (c) Steve Scherf et al.
# Submitted via: audiograbber 1.83.01
#
DISCID=9c09990b
DTITLE=Ian Tyson - I Outgrew The Wagon
DYEAR=1989
DGENRE=Country
TTITLE0=Cowboys Don't Cry
TTITLE1=Casey Tibbs
TTITLE2=I Outgrew The Wagon
TTITLE3=Arms of Corey Jo
TTITLE4=Adelita Rose
TTITLE5=Irving Berlin (is 100 years old today)
TTITLE6=Since the Rain
TTITLE7=The Wind in the Wire
TTITLE8=Four Strong Winds
TTITLE9=The Banks of the Musselshell
TTITLE10=The Steeldust Line
EXTD=
EXTT0=
EXTT1=
EXTT2=
EXTT3=
EXTT4=
EXTT5=
EXTT6=
EXTT7=
EXTT8=
EXTT9=
EXTT10=
PLAYORDER=
